<?xml version="1.0" encoding="UTF-8"?>
<svg xmlns="http://www.w3.org/2000/svg" xmlns:xlink="http://www.w3.org/1999/xlink" width="595.2756pt" height="226.7717pt" viewBox="0 0 595.2756 226.7717" version="1.1" style="background-color:rgb(28, 45, 55)">
<g id="surface1" >
<path style=" stroke:none;fill-rule:nonzero;fill:rgb(224, 94, 58);fill-opacity:1;" d="M 161.34375 143.664062 L 162 143.664062 C 163.417969 143.664062 164.367188 143.558594 164.839844 143.34375 C 165.3125 143.132812 165.546875 142.757812 165.546875 142.222656 C 165.546875 141.648438 165.292969 141.242188 164.789062 141.003906 C 164.285156 140.769531 163.351562 140.652344 162 140.652344 L 161.34375 140.652344 Z M 161.1875 145.097656 L 161.1875 149.953125 L 158.789062 149.953125 L 158.789062 139.140625 L 162.65625 139.140625 C 163.804688 139.140625 164.648438 139.183594 165.191406 139.269531 C 165.730469 139.355469 166.203125 139.496094 166.605469 139.695312 C 167.101562 139.945312 167.488281 140.285156 167.769531 140.707031 C 168.046875 141.132812 168.1875 141.601562 168.1875 142.113281 C 168.1875 142.628906 168.046875 143.101562 167.769531 143.535156 C 167.488281 143.96875 167.101562 144.308594 166.605469 144.550781 C 166.203125 144.75 165.730469 144.890625 165.191406 144.972656 C 164.648438 145.054688 163.804688 145.097656 162.65625 145.097656 Z M 175.652344 149.953125 L 175.652344 139.140625 L 178.203125 139.140625 L 178.203125 149.953125 Z M 186.085938 147.789062 L 188.125 147.140625 C 188.320312 147.625 188.671875 147.992188 189.191406 148.242188 C 189.707031 148.496094 190.367188 148.625 191.167969 148.625 C 191.929688 148.625 192.535156 148.476562 192.984375 148.1875 C 193.429688 147.898438 193.65625 147.507812 193.65625 147.023438 C 193.65625 146.386719 192.886719 145.820312 191.351562 145.324219 C 191.136719 145.25 190.96875 145.195312 190.855469 145.164062 C 189.121094 144.582031 187.964844 144.054688 187.390625 143.582031 C 186.8125 143.113281 186.523438 142.539062 186.523438 141.859375 C 186.523438 140.976562 186.960938 140.265625 187.832031 139.714844 C 188.699219 139.167969 189.84375 138.898438 191.257812 138.898438 C 192.414062 138.898438 193.386719 139.050781 194.167969 139.359375 C 194.949219 139.667969 195.488281 140.109375 195.789062 140.683594 L 193.792969 141.394531 C 193.480469 141.054688 193.136719 140.804688 192.757812 140.648438 C 192.378906 140.488281 191.945312 140.410156 191.457031 140.410156 C 190.773438 140.410156 190.222656 140.535156 189.820312 140.78125 C 189.410156 141.027344 189.210938 141.355469 189.210938 141.769531 C 189.210938 142.421875 190.101562 143.027344 191.878906 143.585938 C 192.015625 143.632812 192.121094 143.667969 192.203125 143.691406 C 193.757812 144.183594 194.824219 144.664062 195.40625 145.132812 C 195.984375 145.605469 196.273438 146.191406 196.273438 146.898438 C 196.273438 147.921875 195.804688 148.734375 194.867188 149.335938 C 193.925781 149.941406 192.65625 150.242188 191.058594 150.242188 C 189.71875 150.242188 188.621094 150.03125 187.765625 149.605469 C 186.910156 149.183594 186.347656 148.578125 186.085938 147.789062 Z M 217.636719 144.570312 C 217.636719 144.023438 217.492188 143.503906 217.199219 143.011719 C 216.910156 142.519531 216.492188 142.082031 215.949219 141.699219 C 215.417969 141.316406 214.804688 141.027344 214.109375 140.824219 C 213.410156 140.621094 212.671875 140.515625 211.902344 140.515625 C 211.128906 140.515625 210.390625 140.617188 209.691406 140.820312 C 208.992188 141.019531 208.367188 141.3125 207.824219 141.699219 C 207.285156 142.078125 206.867188 142.511719 206.578125 143.003906 C 206.292969 143.496094 206.148438 144.019531 206.148438 144.570312 C 206.148438 145.117188 206.292969 145.632812 206.578125 146.121094 C 206.867188 146.605469 207.285156 147.042969 207.824219 147.425781 C 208.367188 147.8125 208.988281 148.105469 209.683594 148.304688 C 210.378906 148.507812 211.121094 148.609375 211.902344 148.609375 C 212.667969 148.609375 213.394531 148.507812 214.085938 148.304688 C 214.777344 148.105469 215.402344 147.8125 215.949219 147.425781 C 216.492188 147.042969 216.910156 146.605469 217.199219 146.117188 C 217.492188 145.625 217.636719 145.113281 217.636719 144.570312 Z M 220.300781 144.570312 C 220.300781 145.339844 220.09375 146.066406 219.671875 146.746094 C 219.253906 147.433594 218.640625 148.042969 217.839844 148.582031 C 217.03125 149.117188 216.121094 149.527344 215.097656 149.8125 C 214.082031 150.097656 213.015625 150.242188 211.902344 150.242188 C 210.769531 150.242188 209.691406 150.097656 208.660156 149.8125 C 207.632812 149.519531 206.726562 149.113281 205.9375 148.582031 C 205.136719 148.042969 204.523438 147.4375 204.109375 146.753906 C 203.695312 146.078125 203.488281 145.347656 203.488281 144.570312 C 203.488281 143.796875 203.695312 143.066406 204.109375 142.382812 C 204.523438 141.699219 205.136719 141.085938 205.9375 140.542969 C 206.742188 140.007812 207.648438 139.597656 208.667969 139.316406 C 209.683594 139.039062 210.761719 138.898438 211.902344 138.898438 C 213.03125 138.898438 214.101562 139.039062 215.117188 139.316406 C 216.128906 139.597656 217.039062 140.007812 217.839844 140.542969 C 218.640625 141.089844 219.253906 141.707031 219.671875 142.394531 C 220.09375 143.082031 220.300781 143.804688 220.300781 144.570312 Z M 227.433594 147.789062 L 229.472656 147.140625 C 229.667969 147.625 230.023438 147.992188 230.539062 148.242188 C 231.054688 148.496094 231.714844 148.625 232.515625 148.625 C 233.28125 148.625 233.882812 148.476562 234.332031 148.1875 C 234.78125 147.898438 235.003906 147.507812 235.003906 147.023438 C 235.003906 146.386719 234.238281 145.820312 232.699219 145.324219 C 232.484375 145.25 232.320312 145.195312 232.207031 145.164062 C 230.46875 144.582031 229.316406 144.054688 228.738281 143.582031 C 228.164062 143.113281 227.875 142.539062 227.875 141.859375 C 227.875 140.976562 228.308594 140.265625 229.179688 139.714844 C 230.046875 139.167969 231.191406 138.898438 232.605469 138.898438 C 233.765625 138.898438 234.734375 139.050781 235.515625 139.359375 C 236.300781 139.667969 236.835938 140.109375 237.136719 140.683594 L 235.144531 141.394531 C 234.828125 141.054688 234.484375 140.804688 234.105469 140.648438 C 233.726562 140.488281 233.292969 140.410156 232.808594 140.410156 C 232.121094 140.410156 231.570312 140.535156 231.167969 140.78125 C 230.757812 141.027344 230.558594 141.355469 230.558594 141.769531 C 230.558594 142.421875 231.449219 143.027344 233.230469 143.585938 C 233.363281 143.632812 233.472656 143.667969 233.550781 143.691406 C 235.105469 144.183594 236.171875 144.664062 236.753906 145.132812 C 237.332031 145.605469 237.621094 146.191406 237.621094 146.898438 C 237.621094 147.921875 237.152344 148.734375 236.214844 149.335938 C 235.273438 149.941406 234.007812 150.242188 232.40625 150.242188 C 231.070312 150.242188 229.972656 150.03125 229.113281 149.605469 C 228.257812 149.183594 227.699219 148.578125 227.433594 147.789062 Z M 268 148.367188 L 270.152344 148.367188 C 271.335938 148.367188 272.21875 148.3125 272.8125 148.207031 C 273.40625 148.097656 273.917969 147.914062 274.355469 147.65625 C 274.949219 147.308594 275.398438 146.875 275.695312 146.351562 C 275.992188 145.832031 276.140625 145.226562 276.140625 144.539062 C 276.140625 143.847656 275.992188 143.246094 275.695312 142.726562 C 275.398438 142.207031 274.949219 141.773438 274.355469 141.421875 C 273.914062 141.167969 273.382812 140.984375 272.761719 140.875 C 272.140625 140.765625 271.167969 140.714844 269.847656 140.714844 L 268 140.714844 Z M 265.449219 149.953125 L 265.449219 139.140625 L 268.890625 139.140625 C 271.136719 139.140625 272.710938 139.21875 273.628906 139.371094 C 274.542969 139.527344 275.34375 139.789062 276.03125 140.152344 C 276.941406 140.628906 277.632812 141.242188 278.101562 141.992188 C 278.570312 142.738281 278.804688 143.59375 278.804688 144.554688 C 278.804688 145.515625 278.570312 146.363281 278.101562 147.105469 C 277.632812 147.847656 276.941406 148.460938 276.03125 148.945312 C 275.34375 149.308594 274.5625 149.566406 273.679688 149.722656 C 272.804688 149.875 271.4375 149.953125 269.582031 149.953125 Z M 286.839844 149.953125 L 286.839844 139.140625 L 295.621094 139.140625 L 295.621094 140.636719 L 289.394531 140.636719 L 289.394531 143.34375 L 295.621094 143.34375 L 295.621094 144.886719 L 289.394531 144.886719 L 289.394531 148.382812 L 295.621094 148.382812 L 295.621094 149.953125 Z M 336.414062 144.613281 C 336.386719 144.53125 336.339844 144.300781 336.273438 143.921875 C 336.214844 143.605469 336.164062 143.34375 336.125 143.136719 C 336.058594 143.386719 335.96875 143.632812 335.851562 143.875 C 335.734375 144.125 335.582031 144.375 335.402344 144.628906 L 331.289062 150.394531 L 327.171875 144.511719 C 327 144.269531 326.847656 144.039062 326.726562 143.8125 C 326.601562 143.582031 326.488281 143.359375 326.398438 143.136719 C 326.390625 143.363281 326.363281 143.601562 326.316406 143.851562 C 326.269531 144.101562 326.199219 144.359375 326.109375 144.628906 L 324.421875 149.953125 L 322.066406 149.953125 L 325.785156 138.6875 L 330.429688 145.511719 C 330.5 145.617188 330.609375 145.796875 330.757812 146.046875 C 330.902344 146.300781 331.078125 146.609375 331.289062 146.976562 C 331.4375 146.667969 331.675781 146.273438 332 145.796875 C 332.082031 145.667969 332.148438 145.570312 332.1875 145.503906 L 336.726562 138.6875 L 340.53125 149.953125 L 338.152344 149.953125 Z M 351 145.703125 L 355.386719 145.703125 L 353.773438 143.238281 C 353.679688 143.082031 353.582031 142.902344 353.484375 142.695312 C 353.386719 142.492188 353.28125 142.265625 353.183594 142.011719 C 353.097656 142.25 353.007812 142.46875 352.910156 142.675781 C 352.8125 142.878906 352.714844 143.066406 352.613281 143.238281 Z M 358.070312 149.953125 L 356.289062 147.171875 L 350.054688 147.171875 L 348.226562 149.953125 L 345.542969 149.953125 L 353.160156 138.714844 L 360.773438 149.953125 Z M 369.90625 148.367188 L 372.058594 148.367188 C 373.242188 148.367188 374.128906 148.3125 374.71875 148.207031 C 375.3125 148.097656 375.824219 147.914062 376.261719 147.65625 C 376.859375 147.308594 377.304688 146.875 377.601562 146.351562 C 377.898438 145.832031 378.046875 145.226562 378.046875 144.539062 C 378.046875 143.847656 377.898438 143.246094 377.601562 142.726562 C 377.304688 142.207031 376.859375 141.773438 376.261719 141.421875 C 375.820312 141.167969 375.289062 140.984375 374.667969 140.875 C 374.046875 140.765625 373.074219 140.714844 371.753906 140.714844 L 369.90625 140.714844 Z M 367.355469 149.953125 L 367.355469 139.140625 L 370.796875 139.140625 C 373.042969 139.140625 374.621094 139.21875 375.535156 139.371094 C 376.449219 139.527344 377.25 139.789062 377.9375 140.152344 C 378.847656 140.628906 379.539062 141.242188 380.007812 141.992188 C 380.476562 142.738281 380.710938 143.59375 380.710938 144.554688 C 380.710938 145.515625 380.476562 146.363281 380.007812 147.105469 C 379.539062 147.847656 378.847656 148.460938 377.9375 148.945312 C 377.25 149.308594 376.46875 149.566406 375.589844 149.722656 C 374.710938 149.875 373.34375 149.953125 371.488281 149.953125 Z M 388.746094 149.953125 L 388.746094 139.140625 L 397.527344 139.140625 L 397.527344 140.636719 L 391.300781 140.636719 L 391.300781 143.34375 L 397.527344 143.34375 L 397.527344 144.886719 L 391.300781 144.886719 L 391.300781 148.382812 L 397.527344 148.382812 L 397.527344 149.953125 Z M 408.117188 143.753906 L 408.582031 143.753906 C 409.933594 143.753906 410.832031 143.644531 411.277344 143.429688 C 411.722656 143.210938 411.945312 142.828125 411.945312 142.277344 C 411.945312 141.679688 411.707031 141.261719 411.230469 141.019531 C 410.753906 140.773438 409.867188 140.652344 408.582031 140.652344 L 408.117188 140.652344 Z M 407.960938 145.113281 L 407.960938 149.953125 L 405.5625 149.953125 L 405.5625 139.140625 L 409.128906 139.140625 C 410.175781 139.140625 410.984375 139.1875 411.5625 139.28125 C 412.140625 139.375 412.632812 139.527344 413.039062 139.746094 C 413.527344 140.007812 413.898438 140.34375 414.167969 140.757812 C 414.429688 141.171875 414.5625 141.621094 414.5625 142.117188 C 414.5625 142.980469 414.257812 143.660156 413.652344 144.152344 C 413.042969 144.640625 412.144531 144.933594 410.953125 145.035156 L 416.367188 149.953125 L 413.484375 149.953125 L 408.246094 145.113281 Z M 426.316406 145.703125 L 430.699219 145.703125 L 429.085938 143.238281 C 428.996094 143.082031 428.894531 142.902344 428.796875 142.695312 C 428.699219 142.492188 428.59375 142.265625 428.496094 142.011719 C 428.410156 142.25 428.320312 142.46875 428.222656 142.675781 C 428.125 142.878906 428.027344 143.066406 427.925781 143.238281 Z M 433.386719 149.953125 L 431.605469 147.171875 L 425.367188 147.171875 L 423.539062 149.953125 L 420.855469 149.953125 L 428.472656 138.714844 L 436.085938 149.953125 Z M 433.386719 149.953125 "/>
<path style=" stroke:none;fill-rule:nonzero;fill:rgb(224, 94, 58);fill-opacity:1;" d="M 517.648438 115.5625 L 517.648438 100.941406 L 545.972656 100.941406 L 558.082031 115.5625 L 569.601562 115.5625 L 558.152344 100.941406 L 558.667969 100.941406 C 560.085938 100.941406 561.457031 100.730469 562.777344 100.308594 C 564.097656 99.886719 565.257812 99.28125 566.261719 98.488281 C 567.265625 97.695312 568.074219 96.769531 568.683594 95.707031 C 569.296875 94.640625 569.601562 93.464844 569.601562 92.179688 L 569.601562 86.6875 C 569.601562 85.152344 569.269531 83.753906 568.609375 82.492188 C 567.949219 81.230469 567.070312 80.175781 565.96875 79.335938 C 564.867188 78.496094 563.597656 77.839844 562.152344 77.367188 C 560.710938 76.898438 559.230469 76.664062 557.714844 76.664062 L 507.226562 76.664062 L 507.226562 86.835938 L 559.179688 86.835938 L 559.179688 91.214844 L 507.226562 91.214844 L 507.226562 115.5625 Z M 438.542969 115.5625 L 450.433594 115.5625 L 469.578125 85.957031 L 489.691406 115.5625 L 501.652344 115.5625 L 475.160156 76.664062 L 464.742188 76.664062 C 456.789062 88.648438 461.875 81.15625 438.542969 115.5625 Z M 301.03125 76.664062 L 301.03125 86.835938 L 363.40625 86.835938 L 363.40625 76.664062 Z M 87.644531 105.320312 L 42.074219 105.320312 C 39.726562 105.320312 38.074219 104.847656 37.121094 103.910156 C 36.167969 102.96875 35.691406 101.457031 35.691406 99.378906 L 35.691406 92.699219 C 35.691406 90.820312 36.179688 89.371094 37.15625 88.355469 C 38.136719 87.339844 39.800781 86.835938 42.148438 86.835938 L 87.644531 86.835938 L 87.644531 76.664062 L 37.15625 76.664062 C 35.738281 76.664062 34.320312 76.898438 32.902344 77.367188 C 31.484375 77.839844 30.210938 78.507812 29.085938 79.375 C 27.960938 80.238281 27.042969 81.304688 26.332031 82.566406 C 25.625 83.828125 25.269531 85.226562 25.269531 86.757812 L 25.269531 105.542969 C 25.269531 107.125 25.601562 108.535156 26.261719 109.773438 C 26.921875 111.011719 27.800781 112.050781 28.902344 112.890625 C 30.003906 113.734375 31.261719 114.386719 32.679688 114.859375 C 34.101562 115.328125 35.59375 115.5625 37.15625 115.5625 L 87.644531 115.5625 Z M 93.21875 115.5625 L 105.105469 115.5625 L 124.253906 85.957031 L 144.367188 115.5625 L 156.328125 115.5625 L 129.835938 76.664062 L 119.417969 76.664062 C 111.460938 88.648438 116.550781 81.15625 93.21875 115.5625 Z M 213.855469 100.996094 L 213.855469 105.394531 L 161.902344 105.394531 L 161.902344 115.5625 L 212.390625 115.5625 C 213.90625 115.5625 215.386719 115.328125 216.828125 114.859375 C 218.269531 114.386719 219.542969 113.734375 220.644531 112.890625 C 221.746094 112.050781 222.625 111.011719 223.285156 109.773438 C 223.945312 108.535156 224.277344 107.125 224.277344 105.542969 L 224.277344 100.03125 C 224.277344 99.128906 224.125 98.277344 223.824219 97.484375 L 223.824219 97.480469 L 223.804688 97.429688 L 223.800781 97.425781 L 223.785156 97.375 L 223.78125 97.375 L 223.761719 97.324219 L 223.761719 97.320312 L 223.742188 97.273438 L 223.738281 97.265625 L 223.71875 97.21875 C 223.613281 96.972656 223.492188 96.726562 223.359375 96.484375 C 222.746094 95.394531 221.941406 94.46875 220.9375 93.703125 C 220.5 93.367188 220.03125 93.0625 219.53125 92.789062 L 219.53125 92.785156 L 219.316406 92.671875 L 219.3125 92.671875 L 219.261719 92.644531 L 219.257812 92.644531 C 218.695312 92.351562 218.09375 92.097656 217.453125 91.882812 C 216.132812 91.4375 214.761719 91.214844 213.34375 91.214844 L 172.324219 91.214844 L 172.324219 86.816406 L 224.277344 86.816406 L 224.277344 76.648438 L 173.792969 76.648438 C 172.277344 76.648438 170.796875 76.882812 169.351562 77.351562 C 167.910156 77.824219 166.636719 78.476562 165.535156 79.320312 C 164.4375 80.160156 163.554688 81.199219 162.894531 82.4375 C 162.234375 83.675781 161.90625 85.085938 161.90625 86.667969 L 161.90625 91.214844 L 161.902344 91.214844 L 161.902344 92.179688 C 161.902344 93.085938 162.054688 93.933594 162.355469 94.726562 L 162.359375 94.730469 L 162.378906 94.78125 L 162.378906 94.785156 L 162.417969 94.886719 L 162.421875 94.890625 L 162.441406 94.9375 L 162.441406 94.945312 L 162.464844 94.992188 C 162.566406 95.238281 162.6875 95.484375 162.824219 95.726562 C 163.433594 96.816406 164.242188 97.742188 165.242188 98.511719 C 165.679688 98.84375 166.152344 99.148438 166.648438 99.421875 L 166.652344 99.425781 L 166.867188 99.539062 L 166.921875 99.566406 C 167.488281 99.859375 168.089844 100.113281 168.730469 100.328125 C 170.050781 100.773438 171.421875 100.996094 172.839844 100.996094 Z M 267.9375 115.5625 L 267.9375 86.910156 L 293.839844 86.910156 L 293.839844 76.664062 L 231.46875 76.664062 L 231.46875 86.910156 L 257.515625 86.910156 L 257.515625 115.5625 Z M 301.03125 105.542969 C 301.03125 107.125 301.363281 108.535156 302.023438 109.773438 C 302.683594 111.011719 303.5625 112.050781 304.664062 112.890625 C 305.765625 113.734375 307.023438 114.386719 308.441406 114.859375 C 309.859375 115.328125 311.351562 115.5625 312.917969 115.5625 L 363.40625 115.5625 L 363.40625 105.320312 L 311.449219 105.320312 L 311.449219 100.941406 L 363.40625 100.941406 L 363.40625 91.214844 L 301.03125 91.214844 Z M 387.398438 105.320312 C 385.050781 105.320312 383.398438 104.847656 382.445312 103.910156 C 381.492188 102.96875 381.015625 101.457031 381.015625 99.378906 L 381.015625 76.664062 L 370.59375 76.664062 L 370.59375 105.542969 C 370.59375 107.125 370.925781 108.535156 371.585938 109.773438 C 372.246094 111.011719 373.125 112.050781 374.226562 112.890625 C 375.328125 113.734375 376.585938 114.386719 378.007812 114.859375 C 379.425781 115.328125 380.917969 115.5625 382.484375 115.5625 L 432.96875 115.5625 L 432.96875 105.320312 Z M 387.398438 105.320312 "/>
<path style=" stroke:none;fill-rule:evenodd;fill:rgb(224, 94, 58);fill-opacity:1;" d="M 30.710938 123.667969 L 564.1875 123.667969 L 564.1875 129.335938 L 30.710938 129.335938 Z M 30.710938 123.667969 "/>
</g>
</svg>
